<svg xmlns="http://www.w3.org/2000/svg" viewBox="0 0 411.76 516.88"><defs><style>.cls-1{fill:#8badb2}.cls-2{fill:#8cadad}.cls-3{fill:#ffecca}.cls-4{fill:#51797c}.cls-5{fill:#ffb92e}.cls-6{fill:#af3f3f}.cls-7{fill:#b56b57}.cls-8{fill:#0e9fc6;opacity:.37}.cls-9{fill:#cae0df}.cls-10{fill:#d6b79d}</style></defs><title>tv_transparent</title><g id="Layer_2" data-name="Layer 2"><g id="Tv"><path d="M368.86,197.66c-.38-.48-.27-2.13-.26,9.89.56.24,1.11.49,1.65.77C370.25,196.5,370.72,200.05,368.86,197.66Z" class="cls-1"/><path d="M372.06,209.36c3.59,2.26,2.69,4.52,2.7-8.6C371.35,200.53,372.05,197.45,372.06,209.36Z" class="cls-1"/><path d="M377.86,200.38c-1.89.63-1.42-1.86-1.41,12.46a26.65,26.65,0,0,1,2.78,3.22C379.24,196.86,379.83,199.73,377.86,200.38Z" class="cls-1"/><path d="M364.25,187.41a8.12,8.12,0,0,1,.12,9.67c-.91,1.23-.68-.72-.67,8.93,4.89,1,2.65,21.78,3.44-182.16-5.33-.05-3.69-19-3.46,160.18C363.68,187.52,363.53,186.46,364.25,187.41Z" class="cls-1"/><path d="M27.12,222.59c2.81,43.84-.07,27.49,4.92,17.61,3.36-6.64,13.22-11.07,12.78-11.28-.8-.38-2.47-8.88-2.8-10.65-7-37-13.65-37.89-12.41-90,1-29,9.4-57.53,17.28-72.37.74-1.4,1.17-.61-2-6.76-3.37-6.58-5-8.07-9.06-11.3-7.09-5.23-6.61-4.54-9.29-4.2C20.52,34.35,26.7,216.11,27.12,222.59Z" class="cls-2"/><path d="M19.18,75.06C15.11,136.3,20.38,253.65,22.87,258c2.63-.24-7.8-.21,77.58-1.3,235.07-3.16,213,14.66,212.9-11.93-.3-183.22,4.92-216.78,1-221.81,2.88,0-84.81-2.79-87.26-2.86-25-.75-102.34,1.17-153.94,3.51l-5.81.27C44.71,24.92,28.07,26.07,25,27.08,19.06,29.11,22.63,23.88,19.18,75.06ZM311.9,26.49c.43,20.33.22-52.72-1.8,219-.24,17.53,10.23,9-135.26,7.49-43.82-.46-104.59.14-130.41,1.1-21.44.83-20,9.29-21.39-24.85C17.52,103.84,20.36,98.58,22,58.05c1.24-31.71.93-27.61,3-27.88C94.32,22,301.74,23.26,311.9,26.49Z" class="cls-3"/><path d="M357.55,184.19c1.52,0-2.16-348.69-1.69-18.31C355.89,187.79,355.16,184.24,357.55,184.19Z" class="cls-1"/><path d="M362.23,185.53c.25-181.28,2-161.66-3-161.74C359.36,204.85,358.16,182.81,362.23,185.53Z" class="cls-1"/><path d="M352.78,185.91c2.18-1.71,1.47,8.07,1.63-77.35.17-94.34,1.48-84.87-2.8-85C351.79,205.74,351.44,187,352.78,185.91Z" class="cls-1"/><path d="M371.57,195.33h0c.17.22.27.35.32.43a5.12,5.12,0,0,1,.41-5.82,3.77,3.77,0,0,1,6.54,3.54.56.56,0,0,1,.78.2,4.58,4.58,0,1,0-8.05,1.65ZM378,188.9Z" class="cls-1"/><path d="M375,24c-4.54,0-3-17.77-2.94,161.26C376.27,183.38,374.76,202.2,375,24Z" class="cls-1"/><path d="M382.57,193.71c1.42-11.12-16-11.08-14.59,0C369.28,202,381.23,202.19,382.57,193.71Zm-11.8,4.79h0Zm11.32-3,0,0Zm-2-7.22c5.2,6.07-2.43,14.3-8.74,10.16C362.64,192.69,373.55,180.53,380.13,188.25Z" class="cls-3"/><path d="M379.52,24c-4.82,0-3.22-18.14-3.09,160.63C381,185.27,378.93,206.43,379.52,24Z" class="cls-1"/><path d="M370.31,114.16c.09-100.28.84-90.26-2-90.29.18,53.13.22,110.83.26,164.16C371,184.63,370.23,196.22,370.31,114.16Z" class="cls-1"/><path d="M380.23,189.71c-.69.83,1.56,2.87-.67,5.91a5.34,5.34,0,0,1-9.63-4c.72-3.25,3.34-5.06,1.46-3.66a6,6,0,0,0-1.88,7.13C372.31,202.67,384.51,197.12,380.23,189.71Zm.35,5.29h0Z" class="cls-4"/><path d="M353.69,194.07c-1.12-8.25,9.86-7.09,7.65-.93a.58.58,0,0,1,.78.2c1.29-4.91-5.17-7.85-8.06-4C352.14,191.73,353.91,195.68,353.69,194.07Zm7.62-4.7h0Z" class="cls-1"/><path d="M372.53,191.05a3,3,0,1,0,5.14-.66A3,3,0,0,0,372.53,191.05Zm.8,2.57a.41.41,0,0,1,.41-.71c1.16.66,1.63.22,2.09-.62.64-2.27,1.61-1.56,1.89-.75C378.33,193.18,376.06,195.14,373.33,193.62Z" class="cls-5"/><path d="M383,195.16c-2.6,7.86-2.17-6.38-2.15,23.48,3,5.43,2.32,9.49,2.32.33C383.2,191.25,383.37,194.1,383,195.16Z" class="cls-1"/><path d="M345,209.37c2-1.24,1.54.85,1.55-11.4C344.47,200.36,344.94,197,345,209.37Z" class="cls-1"/><path d="M333.59,189.8a7.54,7.54,0,0,0,0,5.68h0a7.3,7.3,0,0,0,5.77,4.48c7,.92,8.81-7,7.84-4.46v0C350.81,186.62,337.54,180.8,333.59,189.8Zm2.29,8.7h0Zm10.4-3a6.77,6.77,0,1,1-8.12-9.32A6.76,6.76,0,0,1,346.28,195.54Z" class="cls-3"/><path d="M338.52,188.3a4.58,4.58,0,0,0-2.45,6,7.62,7.62,0,0,1,1.33-4.36,3.77,3.77,0,0,1,6.55,3.54.57.57,0,0,1,.78.2A4.58,4.58,0,0,0,338.52,188.3Z" class="cls-1"/><path d="M343,200.38c-2.21.74-1.66-1.88-1.64,11.73a24.09,24.09,0,0,1,2-1.63C343.35,198.69,343.5,200.2,343,200.38Z" class="cls-1"/><path d="M346.66,113.32c.22-100.34,1.26-89.88-2-90C344.89,169.26,346.35,258.76,346.66,113.32Z" class="cls-1"/><path d="M355,190.71a3,3,0,1,0,5.14-.66A3,3,0,0,0,355,190.71Zm.81,2.57a.41.41,0,0,1,.41-.7c1.16.65,1.63.21,2.09-.63.64-2.27,1.61-1.56,1.89-.75C360.83,192.84,358.55,194.8,355.83,193.28Z" class="cls-5"/><path d="M335.63,219.63a26,26,0,0,1,1.69-2.89c0-19.82.61-15.82-1.61-17.42C335.56,199.22,335.6,197,335.63,219.63Z" class="cls-1"/><path d="M338.65,215c2-2.42,1.47.52,1.49-14.18C338,200.71,338.62,198,338.65,215Z" class="cls-1"/><path d="M338.56,189.86a3,3,0,0,0,1.47,5.36C345.79,195.77,343.24,186.42,338.56,189.86Zm.29,3c1.15.65,1.62.22,2.09-.62.64-2.27,1.61-1.56,1.89-.75.61,1.64-1.67,3.6-4.39,2.08A.41.41,0,0,1,338.85,192.91Z" class="cls-5"/><path d="M365.07,191.28c-1.3-8.27-13.27-8.47-14.59,0C349.08,202.11,366.51,202.49,365.07,191.28Zm-.48,3.85,0,0Zm-2-7.22c5.19,6.07-2.43,14.31-8.75,10.16C345.13,192.35,356.05,180.2,362.63,187.91ZM351,195.13v0Z" class="cls-3"/><path d="M359.88,197.89a6,6,0,0,0,2.85-8.51c-.69.82,1.57,2.85-.68,5.9a5.34,5.34,0,0,1-9.62-4c.72-3.25,3.34-5.06,1.46-3.66C348.5,191.84,353.16,200.63,359.88,197.89Z" class="cls-4"/><path d="M360.36,200c-1.31.44-1-.88-1,5.45a26.62,26.62,0,0,1,2.82.26C362.21,197.2,362.83,199.22,360.36,200Z" class="cls-1"/><path d="M335,192.08a8.27,8.27,0,0,1,2.32-4.65,6,6,0,0,0-3.09,4.42c-.87,6.9,8.66,9.68,11.5,3.12a6,6,0,0,0,0-4.61c-.43-1-.29-.53-.65-.35C349.42,198.25,334.16,201.49,335,192.08Zm-.38,2.92,0,0Z" class="cls-4"/><path d="M355.9,205.61c2.27-.23,1.73.9,1.73-5.16C355.44,200.41,355.89,198.8,355.9,205.61Z" class="cls-1"/><path d="M350.11,206.89c.15-197.69.74-183.39-.48-183.41-3-.07-2.11-8.9-1.9,72.21C348.11,220.52,346.9,208,350.11,206.89Z" class="cls-1"/><path d="M351.85,206.35c.8-.22,1.6-.38,2.42-.52,0-7.6.4-5.72-1.17-6.85C351.35,197.73,351.84,195.7,351.85,206.35Z" class="cls-1"/><path d="M312.43,365c-.46-34.83-.43-28-2.11-20.8-2,8.93-2,20.23-2.24,23.41-.51,5.7-2.09-5.55,1.4,18.39C313.42,372.21,312.56,374.72,312.43,365Z" class="cls-6"/><path d="M142.49,266.44c-43.44-1.16-103.88.83-103.88,1.2s.1.09-3.46,4.57c5.62.06,3.89,1.08,7-3.69a.78.78,0,0,1,1-.27c.92.54.09,1.28-1.66,4.07,96.78,2.21,88.32-.51,103.18-3.89C156.58,265.69,157.68,267,142.49,266.44Z" class="cls-7"/><path d="M70.46,305.63c-.25,1.32-.49,2.63-.72,3.95,6.15.11,13.07-2.1,15.44-3.8.1-.08-.18.79.94-4.45C80.36,305.75,73.47,306.67,70.46,305.63Z" class="cls-6"/><path d="M155.82,266.89c-10.23,1.76-18.53,3.73-21.18,4.54-5.28,1.65-8.38.9,24.68.78,3.57,0,3.79,1.18,4-5.22C155.56,266.58,155.72,266.9,155.82,266.89Z" class="cls-7"/><path d="M75.71,316.33c1.79-.35,4-1.89,5.68-2.95,3.28-2.13,2.46-1.17,3.43-5.84.19-.9-4.77,3.46-15.29,3.23-3.82,23.42-2.4,18.13-4.62,32.52-14,89.47-12.64,65.56-2.18,46,12.36-23.31,5.38-4.2,12.47-38.42.68-3.32,1.4-2.76-2.66-.91a.83.83,0,0,1-.83-1.43c5.55-2.52,4.27-1.66,5.91-8.41,1-4,1.7-2.41-5.84-.41a.53.53,0,0,1-.28-1c8.54-2.29,7-1.91,8.77-9.69-1,.31-7.25,2.35-7.53,1.33s.65-.67,7.88-2.88c2.57-11.2,1.91-4.87-3.87-4.24a.66.66,0,0,1,0-1.32c1.68-.2,4.07-1.76,5.46-2.74.38-.27.12.94,1.49-6.05C73.87,319.81,75.1,316.44,75.71,316.33Z" class="cls-6"/><path d="M221.34,269.87c-45.52-1.13-36.91-3.3-43.58,3,27.81,1.94,21.07,1.42,36.35-1.71C221.45,269.72,227.55,270,221.34,269.87Z" class="cls-7"/><path d="M250,271c-11.43-.38-27.46-2.41-44.52,2.47-3.77,1-7.14.91,15.34.91,19,0,13.8,1.06,24.44-.81C262.28,270.59,261.7,271.38,250,271Z" class="cls-7"/><path d="M181.68,268.28c-20.58-2.15-17.69-1.63-17.92,1.42-.28,3.43-1.91,2.27,6,2.64C178.85,272.81,175.72,273.9,181.68,268.28Z" class="cls-7"/><path d="M61.41,392.78c-7.46,13.57-7.81,23.24-9,32.08-1.53,11.28-3.63,8.39,12.86-18.83C71.44,370.7,74.06,369.2,61.41,392.78Z" class="cls-6"/><path d="M13.88,16c.1,0,10.55-.79,11.17-.87,6.5-.78,6.92.71-3.8-3.81C14.71,8.69,16,9,11.29,9.38c-2,.11-2-.79.52,3.48C14.22,16.84,12.93,16,13.88,16Z" class="cls-7"/><path d="M39.77,193.28c.3,1.42,7.13,27.84,7.16,27.94,3,7.27,2,5.22,10.64,8.3,50.36,17.77,223.68,13,229-6.42,11.93-43,7.33-151.28-.72-168-1.65,1.41.25.5-22.93-6-88.15-24.24-206.75,0-211.67,7.48-13.91,21.16-18.35,46.62-18.86,74.63C31.84,161.67,33.49,163,39.77,193.28ZM263.57,52.11c2.68.45,15.24,4.11,17.57,5.78,6.76,4.78,5.64,39.27,5.64,43.16,0,4.08.6,6.18.53,12.31-.87,57.59-.2,1.18-2-14.64-5.9-40.57,1.76-37.91-11.7-42.73-3-1.08-4.45-.93-8.74-2.83a15,15,0,0,0-4.78-.78C259.68,52.35,259,51.34,263.57,52.11Zm-16.74,178c5.47-1.32,12.78-1,26.25-8,7.8-4.09,9.25-4.81,11.14-17.81-.12,1.68,1.29-13.62,1.5-13.62,1.06,0-.52,9.54-.34,17.36.63,22.25-29.2,21.87-40.65,24.79C244,233,241.3,231.46,246.83,230.15ZM37.28,144.3c.53,16.7,9.06,74.38,28.76,81.13,3.21,1.1,19.68,5,22.91,4.92s3.81,1.38-1.18,1c-4-.28-10.8-2.42-18.58-3.54-17.32-2.26-16.8-3-23.34-26.6-3.45-12.48-7.65-43.17-7.45-41.14C35.75,140.61,37.28,144.19,37.28,144.3Z" class="cls-8"/><path d="M250.14,273.22c-10.33,1.73-10.09,1.35-1,1.31C275.17,274.33,283.2,267.67,250.14,273.22Z" class="cls-7"/><path d="M405.23,36.16c.11-8.76-.13-2.17-3.08,2.44C401.83,44.05,401.13,44.25,405.23,36.16Z" class="cls-7"/><path d="M29.7,268.84c2.59-2.43,2.81-1.79-1.28-1.86-6.09,5.34-7.75,5.35-5.44,5.32C27.34,272.23,25.36,272.87,29.7,268.84Z" class="cls-7"/><path d="M37,267c-4.31,0-2.67-1-9.06,5.2,6.59-.08,5.29.28,6.25-1C37.84,266.38,38,267,37,267Z" class="cls-7"/><path d="M71.28,301.2c-.38,2.11-.88,2.28,1.81,2.28a16.16,16.16,0,0,0,8.59-2.65c4.38-2.6,3.72-3.05,4.06-5.27.11-.69.28-.25-1.92.79C72.19,301.89,72.56,294,71.28,301.2Z" class="cls-6"/><path d="M82.47,283.39c3.53-4.72,3.39-3.77,1.86-3.51-19.58,3-20.95,6.62-21.17,6.74,0,.79-1.29,1.18,6.7,1.18C78.87,287.77,77.48,290,82.47,283.39Z" class="cls-7"/><path d="M46.73,510.53c1.46,0,2.62-6.28,2.82-7.74,1.42-10.46,2.28-8.9-1.88-8.73a.92.92,0,0,1,0-1.83c4.65-.17,2.92,1.58,4.23-6.76-1.87-.06-5.07-.17-5.51-.6a1,1,0,0,1,.64-1.71c6.37,0,4.79,2.47,5.84-4.64.52-3.61,1.83-4.42-4.29-.46-.65.42-4-.53,2.12-3.64,3.93-2,3-.52,3.81-4.27.79-3.6,1.55-3-4.59-1.11a1,1,0,0,1-.53-1.93c11.07-3.34,5.27.41,15.55-59.23-16.22,25.06-15,28.64-22,93.26C41.51,514.77,42.33,508.61,46.73,510.53Z" class="cls-6"/><path d="M10,272.12c12.67.77,9.07.73,16.5-5.17C11.7,266.63,15.88,265.61,10,272.12Z" class="cls-7"/><path d="M353.23,475.24c2.21,14.44,4,33.69,7,35.14,2.47.87,2.76,4.22.66-31.27-.57-9.74-.15-8.31-3.06-6.49a.52.52,0,0,1-.52-.9c3.54-2.2,3-.51,2.21-8C350.21,469.69,351.8,465.86,353.23,475.24Z" class="cls-6"/><path d="M341.55,284.89c-9.54,4.5-12.84,4.6,6.15,4.08,2.48-1.59,4.27,3.85,3.48-7.61C351.14,280.87,342,284.7,341.55,284.89Z" class="cls-7"/><path d="M374.7,273c0-.17-.2-.1,1.4-.26a.89.89,0,0,1,0-.37c-55.16.57-46.78-2.6-53.3,1.18-.77.47,53.49.51,53.59.51C376.06,272.56,376.41,272.85,374.7,273Zm-6,.56c-2.06.2-1.84.21-1.84.08C368.87,273.46,368.66,273.44,368.66,273.57Zm1.56-.15v-.1C372.78,273.07,372.75,273.18,370.22,273.42Z" class="cls-7"/><path d="M352.07,467.63c.05-.05,5.37-3.23,5.59-3.37,2.31-1.44,2,.18.89-9.36-.1.06-2.94,1.47-3.33,1.26-1.19-.72,1.24-1.4,3.21-2.35-.84-7.58.28-6.27-4-4.81a.74.74,0,0,1-.39-1.42c4.54-1.56,3.65-.55,3-6.9-5.45,4.62-5.63,5.11-6.3,4.43s-.19-.93,6.14-6.23c-6.94-73.06-3.47-73.73-8.66-39C344.92,424.71,345.26,423.16,352.07,467.63Zm-2.77-18.52-.06-.48C349.26,448.76,349.28,449,349.3,449.11Z" class="cls-6"/><path d="M345.27,362c-3.35,1.42-3.72,1.62-3.85,1.12-.2-.8,2.07-.56,6.65-3.42,3.32-2.06,2.72-1.84,2.51-5.26-.43-7.34.71-5.45-3.67-3.29-9.15,4.5-9.1-2.21-7.64,9.3.91,6.57,3.38,32.91,4,39.54,2.84,29.66,1.87,24,3.1,10.47,2-21.85,5.61-30.37,5-40.81C350.62,354.61,352.42,359,345.27,362Z" class="cls-6"/><path d="M298,37.94c10.8-8,19.35-7.5-2.31-7.91-2.44-.06-1.9-.85-3.89,3.53-.65,1.65-6.42,15.22-4.7,18.24C289.93,56.71,285.86,47,298,37.94Z" class="cls-2"/><path d="M379.17,272.56c0-.22-.06-.17.32-.21-2.4,0-2-.31-1.56,1.72,2.7,0,2.21.25,2.12-1C380,272.32,380.22,272.44,379.17,272.56Z" class="cls-7"/><path d="M281.19,233.61c-34.39,14-151,18.84-235-3.8a63,63,0,0,0-4.77,4.28c-6.25,5.78-7.65,7.53-10.79,14.57-2.74,6.75-11.43-2.62,157.48-.13.1,0,113.82,1.82,113.77,1.66a35.89,35.89,0,0,0-4-9.39C289.81,226.43,291.91,229.31,281.19,233.61Z" class="cls-9"/><path d="M347.65,343.76c2.78-2.24,2.18-1.39,1.61-12.74-1.82,1.07-4.49,2.55-4.92,1-.33-1.18,1.05-1.26,3.15-2.23.47-.22,1.61-.9,1.65-.92-.34-6.59-.16-5.76-.56-5.53-1.46.82-6.94,3.46-7.41,1.85-.33-1.21,1.06-.7,4.07-1.94,2.41-1.14,2.36-1.36,3.52-1.84-.54-9.6.74-8.58-4.65-3.64-5.74,5.23-5,1.91-4.44,1.54a70.26,70.26,0,0,0,8.53-7.74c-.48-8.39.73-5.59-3.75-3-1.15.65-8.21,4.63-8.88,3.49s1.25-1.31,5.06-3.29c7.08-3.71,6.2-5,7.08-5.42-.21-3.32.27-1.82-1.66-.78-17.07,9-18.37-34.81-8.55,43.14C337.61,346.48,345,345.78,347.65,343.76Z" class="cls-6"/><path d="M339.85,352.06c5.85-.82,7.47-2.34,10.33-4.08-.62-9.88,2.39-1.27-12.5-1C338.57,353.24,337.94,352.31,339.85,352.06Z" class="cls-6"/><path d="M268.82,273c-11.45,2.91-9.78.8,29.51.76,23.49,0,12.28,1.73,21.17-2.12C269.86,271.08,276.32,271.11,268.82,273Z" class="cls-7"/><path d="M343.57,61c.08-41.83.35-37.64-.57-37.66-2.83-.06-1.95-18.25-1.71,161.28C344.26,184.93,343.3,199.74,343.57,61Z" class="cls-1"/><path d="M309.7,387.49c9.39,63.26,4.05,18.42,3.11-8.36C312.64,374.34,313.41,374,309.7,387.49Z" class="cls-6"/><path d="M311.56,331.86c-.54-22.51,1.33-22.12-6-2-2,5.52-1.75,5.67.82,32.83,1,11.06.56,4.52,1.32-6.6C308.65,342.31,311.7,338,311.56,331.86Z" class="cls-6"/><path d="M325,271.71c-4.9,0-3.92-.18-5.28.4-5.67,2.52-3.54,2.07-2.25,2.07C321.67,274.18,320,274.6,325,271.71Z" class="cls-7"/><path d="M320.11,280.26c-2.3.05,1.79,1.14,5.53,4.61,1.46,1.34,1.76,2.31-.45-3.12C324.3,279.71,325.32,280.13,320.11,280.26Z" class="cls-7"/><path d="M401.64,55.05c-.26,9-2.38,42.68-2.93,59.41,4.8-15.51,6.25-9.17,6.44-66.54C401.18,55.27,401.67,54.3,401.64,55.05Z" class="cls-7"/><path d="M380.91,256.32c3.09-.08,2.27,2.14,2.28-18.62C380.64,247.19,380.89,236.28,380.91,256.32Z" class="cls-1"/><path d="M356,211.86c-11.93,1.66-21,14.43-14.79,27.35a1.23,1.23,0,0,1,1-1.15c.58-.1-.26-1.48.92-2.11,4.05-2.19,2.07-.37,2.25-5a13.34,13.34,0,0,1,23.06-8.7c4.57-2.46,4.62-2.69,5.55-1.87.65.47,2.84,6.24,2.83,6.68-.05,1.9-4.72,2.43-4.76,4.46a13.34,13.34,0,0,1-22.1,9.91,24.14,24.14,0,0,1-4.86,3.15A19.22,19.22,0,1,0,356,211.86ZM342.3,229.5a1,1,0,0,1,.09-2A1,1,0,0,1,342.3,229.5Zm5.6-9.65a1,1,0,0,1,.08-2A1,1,0,0,1,347.9,219.85Zm12-3.76a1,1,0,0,1,.09-2A1,1,0,0,1,359.88,216.09Zm-8.78,32.55c-.05,0,0,0,0,0Zm3-.79a1,1,0,0,1,.09-2A1,1,0,0,1,354.12,247.85Zm11.31-1.27a1,1,0,0,1,.09-2A1,1,0,0,1,365.43,246.58Zm4.84-.41h0C370.31,246.13,370.35,246.1,370.27,246.17Zm4.16-10a1,1,0,0,1,.09-2A1,1,0,0,1,374.43,236.18Z" class="cls-10"/><path d="M373.16,223.53c-.31-.73-.17-.77-.83.42C373.55,223.91,373.41,224.11,373.16,223.53Z" class="cls-7"/><path d="M380.24,221.86l0-.06v0l0,0a23.66,23.66,0,0,0-24.87-14.2c-23.74,3.36-28.11,35.66-5.92,45.16a23.63,23.63,0,0,0,18.29-.08h0l.06,0a23.66,23.66,0,0,0,12.4-12.43c0-.1.06-.15,0,0v0c0,.08.11-.26,0-.1A23.48,23.48,0,0,0,380.24,221.86Zm-9.2,25c-15.4,11.93-36.71-2.39-32.09-20.82,5.14-20.32,33.95-20.24,39.16-.26A20.21,20.21,0,0,1,371,246.82Z" class="cls-3"/><path d="M385,24c.21,496-.24,26.61,2.76,3.39C388.4,22.59,389,23.92,385,24Z" class="cls-1"/><path d="M380.58,24c.12,37.43.22,116.15.26,162.77,3.6,3.38,2.34,19.42,2.38-71.63C383.28,13.91,384.43,24,380.58,24Z" class="cls-1"/><path d="M340.16,184.53c.33-217.76-1.93-213.47-1.56.21A7.42,7.42,0,0,1,340.16,184.53Z" class="cls-1"/><path d="M347.59,233.54c21.59-11.65,19.51-10,18-11.14h0C357.49,216.07,345.57,223.32,347.59,233.54Zm15.49-12.62h0Z" class="cls-3"/><path d="M376.49,256.53c3.53-.19,2.7,1.82,2.71-10.48C375.77,250.76,376.48,246.74,376.49,256.53Z" class="cls-1"/><path d="M345.58,239.43c.65,1.27-.27.21,2.73-2.11,4.67-3.57,21.45-11.84,22.8-14.19C340.51,239.64,344.22,236.8,345.58,239.43Z" class="cls-3"/><path d="M353.9,241.51c-.31.59,8.42,3.69,13.83-3.19,2.29-3,2.5-6.63,2.24-6.58C363.34,232.93,357.06,235.57,353.9,241.51Z" class="cls-3"/><path d="M356.16,233.3c-8.32,4.5-8.55,4.95-9.75,6.94C385.91,218.93,372.44,224.42,356.16,233.3Z" class="cls-3"/><path d="M398.28,162c-.18.17-.37,6.25-.34,23.76,0,56.95-3.11,54.15,3.19,35.84.62-1.8.23-42.25.55-56.17C401.91,156.44,403.05,157.37,398.28,162Z" class="cls-7"/><path d="M402.14,44.54c-.27.47-.21-.54-.26,2.06-.11,5.92-.61,5.57.92,2.76,2.85-5.27,2.35-3.4,2.38-8.3C405.21,37.5,406,37.77,402.14,44.54Z" class="cls-7"/><path d="M402.12,152.59c.15-3.86.3-3.31-.52-2.22-2.64,3.48-2.43,3.45-2.7,3.52a.42.42,0,0,1-.48-.62c4.84-7,3.84-3.08,4.08-13.12-3.41,8.84-3.62,9.4-4.17,9.08a.26.26,0,0,1-.13-.19c0,3.47-.05,7.32-.08,11.62C403,156.14,402,157.33,402.12,152.59Z" class="cls-7"/><path d="M402,106.17c-4.15,12.9-3.64,6.24-3.83,42.58.05-.24.19-.44.11-.25,4.59-10.83,4.29-7.84,5.07-36C403.81,98.22,404.08,99.74,402,106.17Z" class="cls-7"/><path d="M395.86,124.33c.36-30.7,5.91-108.93,3.72-108.93C420,15.4,103,7,14.65,18.18c-.88,0-2.9,146.25-2.11,189.32.41,22.66,2.13,33.12,2.76,49.2.35,9.42-2.59,7.62,10.76,7.86,22.54.48,51.46,0,53,0C171.32,262,196,268.4,266.84,268.4c.1,0,124.77-.83,125.51-.46C396.14,227.6,395.57,156,395.86,124.33ZM315.33,22.6h0C315.36,22.65,315.39,22.68,315.33,22.6Zm-.59,229.31c1.95,13.87-1.25,8.91-97.24,5C183.5,255.53,83.13,258,34,258.43c-9.42,1.5-12.81,2.49-13-2.34C13.16,96.51,17.81,104.3,19.88,42.83c.63-20.82-7.74-16.56,47.49-19l5.81-.27L76,23.42c25-1.18,30-2.31,37.24-2.62,88.47-3.8,200.88.63,201.55,1.13C319.75,25.58,310.6,219.56,314.74,251.91Zm48,11.7c-42.62-.07-40.61.33-40.3-1.25-.69-.56-.65-244.88,0-245.4.34-1.24,71.32-.68,71.68-.32,1.36.37-2.64,245.17-3.41,245.56C391.88,264.29,389.16,263.66,362.76,263.61Z" class="cls-6"/><path d="M403.28,13.89c-1.22,19.67-.41,11.76-1,23,3.88-8.81,2.9-4.38,3.31-12.8C406.3,8.38,407.38,11,403.28,13.89Z" class="cls-7"/><path d="M383.83,272.32c-2.11,0-1.84-.22-1.78.72.08,1.22-.45,1,3,.92C384.17,272.06,384.39,272.32,383.83,272.32Z" class="cls-7"/><path d="M394.11,272.05c-.66,0-3.93.2-7.62.24.92,1.93,0,1.7,4.06,1.38C396.38,273.19,397.07,273.83,394.11,272.05Z" class="cls-7"/><path d="M397,238c-.86,19.08-1.06,14.29,4.15-1.51C401.16,225,402.57,216.36,397,238Z" class="cls-7"/><path d="M396.73,255.6c-.11,16.31-3.05,11.29,1.23,13.85a13,13,0,0,1,2.9,2.1c-.13-2,.08-.57.29-32C399.82,243.77,397.36,251.22,396.73,255.6Z" class="cls-7"/><path d="M372.08,253.67c0,3.7-.68,3.09,2.63,3,0-1.94,0-3.88,0-5.82C371.68,253.31,372.08,252.1,372.08,253.67Z" class="cls-1"/><path d="M393,21.07c-.05-3.89,8.6-2.71-68.9-2.85,0,254.47,0,242.86,0,243.32l65.31.12C389.18,261.2,393,21.17,393,21.07Zm-7.17,237.8c-1.24,1.88-53.86,2.28-55.3,1.75-3.64,1.43-1.52-.84-4.7-129.29-.57-22.19.69-67.06.7-67.16.67-50.8,1.3-44.88,5.16-45,14-.39,34.91,2,46.56.76,16.27-1.79,13.61-3.82,11.74,13.86C386.8,64,392.46,258.49,385.8,258.87Z" class="cls-3"/><path d="M368.64,256.92c2-.13,1.58.54,1.58-3.15C368.23,254.8,368.64,253.94,368.64,256.92Z" class="cls-1"/><path d="M333.17,23.14c-.32,0-.24-4.19-.22,53.55C333,357.44,336.3,23.2,333.17,23.14Z" class="cls-1"/><path d="M330.45,229.62c4.11,127.24,1.19-206.51,1.09-206.52C331.23,23.08,326.05,89.61,330.45,229.62Z" class="cls-1"/><path d="M333.06,233.55c0-.1-.11,25.1.13,25.11,1.29,0,1,.9,1-5.14C334.19,229.11,334,243.42,333.06,233.55Z" class="cls-1"/><path d="M334.23,198a6.86,6.86,0,0,1-1.2-1.86C333.05,246.27,334.19,232.8,334.23,198Z" class="cls-1"/><path d="M338.68,247.18c0,9,0,11,0,11.37,0-.06,0-.11,0,.12,1.8,0,1.39.78,1.39-3.81C340.1,247.29,340.44,249.33,338.68,247.18Z" class="cls-1"/><path d="M335.66,242.49c0,.1,0,15.61,0,16.2,2,0,1.61.38,1.61-2.09C337.3,242.36,337.84,246.84,335.66,242.49Z" class="cls-1"/><path d="M359.41,256.58c0,.95-.51.74,2.73.65C362.14,256,362.61,256.47,359.41,256.58Z" class="cls-1"/><path d="M365.43,255.66c-2,.56-1.67,0-1.66,1.52,1.85-.06,2.46-.1,3.06-.14C366.83,254.76,367.19,255.17,365.43,255.66Z" class="cls-1"/><path d="M337.48,116.87c.13-103.07.66-93.67-1.07-93.69C333.34,23.15,337.23,315.28,337.48,116.87Z" class="cls-1"/><path d="M351.89,257.7c2.83-.19,2.35.23,2.35-1.46C351.36,255.76,351.89,255.08,351.89,257.7Z" class="cls-1"/><path d="M345,252.74v5.53c1.86-.22,1.44.62,1.44-4C346.44,253.33,346.7,253.81,345,252.74Z" class="cls-1"/><path d="M341.36,250v8.61c2.54-.12,1.93.93,1.93-6.45C343.29,251.22,343.58,252,341.36,250Z" class="cls-1"/><path d="M355.92,257.46c2-.11,1.67.13,1.68-.87C355.59,256.51,355.93,256.15,355.92,257.46Z" class="cls-1"/><path d="M348,258c2.59-.2,2.05.41,2.06-2.81C347.47,254.27,348,253.46,348,258Z" class="cls-1"/></g><g id="Tv_copy" data-name="Tv copy"><path d="M25,30.17c-2.09.27-1.78-3.83-3,27.88C20.36,98.58,17.52,103.84,23,229.22c1.42,34.14-.05,25.68,21.39,24.85,25.82-1,86.59-1.56,130.41-1.1,145.49,1.5,135,10,135.26-7.49,2-271.71,2.23-198.66,1.8-219C301.74,23.26,94.32,22,25,30.17ZM188.12,248.53C19.21,246,27.9,255.41,30.64,248.66c3.14-7,4.54-8.79,10.79-14.57a63,63,0,0,1,4.77-4.28c84,22.64,200.6,17.78,235,3.8,10.72-4.3,8.62-7.18,16.66,7.19a35.89,35.89,0,0,1,4,9.39C301.94,250.35,188.22,248.53,188.12,248.53Zm103.66-215c2-4.38,1.45-3.59,3.89-3.53,21.66.41,13.11-.12,2.31,7.91-12.12,9-8.05,18.77-10.9,13.86C285.36,48.78,291.13,35.21,291.78,33.56ZM262.91,49.05c23.18,6.53,21.28,7.44,22.93,6,8.05,16.74,12.65,125.06.72,168-5.31,19.46-178.63,24.19-229,6.42-8.63-3.08-7.61-1-10.64-8.3,0-.1-6.86-26.52-7.16-27.94-6.28-30.24-7.93-31.61-7.39-62.12.51-28,4.95-53.47,18.86-74.63C56.16,49.09,174.76,24.81,262.91,49.05ZM35.8,37.89c4.09,3.23,5.69,4.72,9.06,11.3,3.2,6.15,2.77,5.36,2,6.76C39,70.79,30.65,99.36,29.61,128.32c-1.24,52.06,5.39,52.91,12.41,90,.33,1.77,2,10.27,2.8,10.65.44.21-9.42,4.64-12.78,11.28-5,9.88-2.11,26.23-4.92-17.61-.42-6.48-6.6-188.24-.61-188.9C29.19,33.35,28.71,32.66,35.8,37.89Z"/><path d="M40.22,78.41h0v0Z"/><path d="M411.74,4.49c.08-1.55.53-2-12.62-3.54C399,.94,84-3.1,3.71,5.59,1,6,.38,2,.48,42.08c0,.1-1.85,203.76,1.72,228.57,1.41,9.84-.66,6.34,42.89,7.73,17.57.51,13.63-2.27,13.94,8.42.1,3.82.84,4.85,11,4.36-24,145.3-28.42,198.37-31.56,217-1.24,7.11,4.36,8.1,6.26,7.72,5.4,3.3,9.41-4.92,10.47-11.16,6.09-36.56,24.12-166.25,37.45-217.89,3.69-1.36,2.79-1.13,6.55-6.25,1.7-2.29.37-1.92,4-1.92,2.83,0,2.68-4.45-.65,34.34,0,.11-5.57,73.58-5.63,75.23-1.27,32-2.37,34.13,2.25,34.95,15.08,2.66,5.4-47.33,21.53-144.55,111.53,1,76.18,2,132,2,50.42,0,44.63-3.25,45.08,2.67,5.51,74.07,7.18,148.41,18.86,141.35,6.13,1.41,3.44-11.55,2.13-28.79-1.06-14-4.65-95.74-4.28-113.24,0-1.78-.36-1.06,1.9.73,2.66,2.08,3.72,2.57,5.3,3.71,2.07,1.69,1.38,1.44,3.92,3.36,3.66,3,2.46.14,3,6.41.76,7.94,18.26,177.33,24.34,210.47.61,3.29,1.17,6.7,4.42,8.21,21.79,10.08,4.74-34.23-.88-139.35-5.09-94.27-8.07-82.41-3.36-83.42,1.19-.26,2.38-2,2.73-3.47,3.13-11.48-5.16-9.2,13.15-9.09,38.22.18,35.41-.87,37.44-7.28C406.48,272.78,410.2,28.36,411.74,4.49ZM397,238c5.56-21.61,4.15-13,4.15-1.51C396,252.26,396.15,257.05,397,238Zm.93-52.17c0-17.51.16-23.59.34-23.76,4.77-4.67,3.63-5.6,3.4,3.43-.32,13.92.07,54.37-.55,56.17C394.83,240,397.94,242.75,397.94,185.8Zm4.18-33.21c-.17,4.74.83,3.55-4,8.07.41-49.75-.64-40.33,3.91-54.49,2.05-6.43,1.78-8,1.35,6.33-.78,28.16-.48,25.17-5.07,36,.14-.32-.38.5,0,.73.55.32.76-.24,4.17-9.08-.24,10,.76,6.1-4.08,13.12a.42.42,0,0,0,.48.62c.27-.07.06,0,2.7-3.52C402.42,149.28,402.27,148.73,402.12,152.59Zm-3.41-38.13c.55-16.73,2.67-50.46,2.93-59.41,0-.75-.46.22,3.51-7.13C405,105.29,403.51,99,398.71,114.46Zm3.44-75.86c3-4.61,3.19-11.2,3.08-2.44C401.13,44.25,401.83,44.05,402.15,38.6Zm-.27,8c.05-2.6,0-1.59.26-2.06,3.83-6.77,3.07-7,3-3.48,0,4.9.47,3-2.38,8.3C401.27,52.17,401.77,52.52,401.88,46.6Zm1.4-32.71c4.1-2.88,3-5.51,2.28,10.18-.41,8.42.57,4-3.31,12.8C402.87,25.65,402.06,33.56,403.28,13.89Zm-3.7,1.51c2.19,0-3.36,78.23-3.72,108.93-.29,31.71.28,103.27-3.51,143.61-.74-.37-125.41.46-125.51.46-70.84,0-95.52-6.37-187.78-3.88-1.54,0-30.46.52-53,0-13.35-.24-10.41,1.56-10.76-7.86-.63-16.08-2.35-26.54-2.76-49.2-.79-43.07,1.23-189.32,2.11-189.32C103,7,420,15.4,399.58,15.4ZM377.93,274.07c-.4-2-.84-1.71,1.56-1.72-.38,0-.32,0-.32.21,1.05-.12.83-.24.88.48C380.14,274.32,380.63,274.07,377.93,274.07Zm4.12-1c-.06-.94-.33-.71,1.78-.72.56,0,.34-.26,1.23,1.64C381.6,274.08,382.13,274.26,382.05,273Zm-64.63,1.14c-1.29,0-3.42.45,2.25-2.07,1.36-.58.38-.45,5.28-.4C320,274.6,321.67,274.18,317.42,274.18ZM11.29,9.38c4.7-.37,3.42-.69,10,1.93,10.72,4.52,10.3,3,3.8,3.81C24.43,15.2,14,16,13.88,16c-1,0,.34.85-2.07-3.13C9.31,8.59,9.27,9.49,11.29,9.38ZM10,272.12c5.92-6.51,1.74-5.49,16.5-5.17C19,272.85,22.63,272.89,10,272.12Zm13,.18c-2.31,0-.65,0,5.44-5.32,4.09.07,3.87-.57,1.28,1.86C25.36,272.87,27.34,272.23,23,272.3Zm4.91-.06C34.28,266,32.64,267,37,267c1,0,.89-.66-2.81,4.2C33.18,272.52,34.48,272.16,27.89,272.24Zm42,15.56c-8,0-6.7-.39-6.7-1.18.22-.12,1.59-3.71,21.17-6.74,1.53-.26,1.67-1.21-1.86,3.51C77.48,290,78.87,287.77,69.86,287.8Zm15.88,7.76c-.34,2.22.32,2.67-4.06,5.27a16.16,16.16,0,0,1-8.59,2.65c-2.69,0-2.19-.17-1.81-2.28,1.28-7.22.91.69,12.54-4.85C86,295.31,85.85,294.87,85.74,295.56ZM70.46,305.63c3,1,9.9.12,15.66-4.3-1.12,5.24-.84,4.37-.94,4.45-2.37,1.7-9.29,3.91-15.44,3.8C70,308.26,70.21,307,70.46,305.63ZM49.39,467.11a1,1,0,0,0,.53,1.93c6.14-1.86,5.38-2.49,4.59,1.11-.81,3.75.12,2.26-3.81,4.27-6.12,3.11-2.77,4.06-2.12,3.64,6.12-4,4.81-3.15,4.29.46-1,7.11.53,4.64-5.84,4.64a1,1,0,0,0-.64,1.71c.44.43,3.64.54,5.51.6-1.31,8.34.42,6.59-4.23,6.76a.92.92,0,0,0,0,1.83c4.16-.17,3.3-1.73,1.88,8.73-.2,1.46-1.36,7.73-2.82,7.74-4.4-1.92-5.22,4.24-3.8-9.39,7-64.62,5.79-68.2,22-93.26C54.66,467.52,60.46,463.77,49.39,467.11ZM65.25,406c-16.49,27.22-14.39,30.11-12.86,18.83,1.21-8.84,1.56-18.51,9-32.08C74.06,369.2,71.44,370.7,65.25,406Zm15.37-78.6c-7.23,2.21-8.17,1.8-7.88,2.88s6.52-1,7.53-1.33c-1.81,7.78-.23,7.4-8.77,9.69a.53.53,0,0,0,.28,1c7.54-2,6.8-3.54,5.84.41-1.64,6.75-.36,5.89-5.91,8.41a.83.83,0,0,0,.83,1.43c4.06-1.85,3.34-2.41,2.66.91-7.09,34.22-.11,15.11-12.47,38.42-10.46,19.58-11.78,43.49,2.18-46,2.22-14.39.8-9.1,4.62-32.52,10.52.23,15.48-4.13,15.29-3.23-1,4.67-.15,3.71-3.43,5.84-1.64,1.06-3.89,2.6-5.68,2.95-.61.11-1.84,3.48,8-3.25-1.37,7-1.11,5.78-1.49,6.05-1.39,1-3.78,2.54-5.46,2.74a.66.66,0,0,0,0,1.32C82.53,322.56,83.19,316.23,80.62,327.43ZM41.5,272.32c1.75-2.79,2.58-3.53,1.66-4.07a.78.78,0,0,0-1,.27c-3.07,4.77-1.34,3.75-7,3.69,3.56-4.48,3.46-4.23,3.46-4.57s60.44-2.36,103.88-1.2c15.19.54,14.09-.75,2.19,2C129.82,271.81,138.28,274.53,41.5,272.32Zm117.82-.11c-33.06.12-30,.87-24.68-.78,2.65-.81,11-2.78,21.18-4.54-.1,0-.26-.31,7.47.1C163.11,273.39,162.89,272.19,159.32,272.21Zm10.42.13c-7.89-.37-6.26.79-6-2.64.23-3.05-2.66-3.57,17.92-1.42C175.72,273.9,178.85,272.81,169.74,272.34Zm8,.53c6.67-6.3-1.94-4.13,43.58-3,6.21.15.11-.15-7.23,1.29C198.83,274.29,205.57,274.81,177.76,272.87Zm43.1,1.48c-22.48,0-19.11.13-15.34-.91,17.06-4.88,33.09-2.85,44.52-2.47,11.66.41,12.24-.38-4.74,2.57C234.66,275.41,239.88,274.35,220.86,274.35Zm28.27.18c-9.08,0-9.32.42,1-1.31C283.2,267.67,275.17,274.33,249.13,274.53Zm49.2-.76c-39.29,0-41,2.15-29.51-.76,7.5-1.9,1-1.93,50.68-1.36C310.61,275.5,321.82,273.77,298.33,273.77Zm8.05,88.93c-2.57-27.16-2.81-27.31-.82-32.83,7.33-20.13,5.46-20.52,6,2,.14,6.15-2.91,10.45-3.86,24.24C306.94,367.22,307.42,373.76,306.38,362.7Zm1.7,4.89c.28-3.18.21-14.48,2.24-23.41,1.68-7.2,1.65-14,2.11,20.8.13,9.74,1,7.23-2.95,21C306,362,307.57,373.29,308.08,367.59Zm1.62,19.9c3.71-13.54,2.94-13.15,3.11-8.36C313.75,405.91,319.09,450.75,309.7,387.49Zm15.94-102.62c-3.74-3.47-7.83-4.56-5.53-4.61,5.21-.13,4.19-.55,5.08,1.49C327.4,287.18,327.1,286.21,325.64,284.87Zm14.21,67.19c-1.91.25-1.28,1.18-2.17-5.07,14.89-.28,11.88-8.89,12.5,1C347.32,349.72,345.7,351.24,339.85,352.06Zm6.2-49.55c1.93-1,1.45-2.54,1.66.78-.88.41,0,1.71-7.08,5.42-3.81,2-5.79,2-5.06,3.29s7.73-2.84,8.88-3.49c4.48-2.55,3.27-5.35,3.75,3a70.26,70.26,0,0,1-8.53,7.74c-.54.37-1.3,3.69,4.44-1.54,5.39-4.94,4.11-6,4.65,3.64-1.16.48-1.11.7-3.52,1.84-3,1.24-4.4.73-4.07,1.94.47,1.61,5.95-1,7.41-1.85.4-.23.22-1.06.56,5.53,0,0-1.18.7-1.65.92-2.1,1-3.48,1.05-3.15,2.23.43,1.57,3.1.09,4.92-1,.57,11.35,1.17,10.5-1.61,12.74-2.7,2-10,2.72-10.15,1.89C327.68,267.7,329,311.54,346.05,302.51Zm-2.76,97.43c-.64-6.63-3.11-33-4-39.54-1.46-11.51-1.51-4.8,7.64-9.3,4.38-2.16,3.24-4.05,3.67,3.29.21,3.42.81,3.2-2.51,5.26-4.58,2.86-6.85,2.62-6.65,3.42.13.5.5.3,3.85-1.12,7.15-3,5.35-7.34,6.16,7.65.57,10.44-3.07,19-5,40.81C345.16,423.91,346.13,429.6,343.29,399.94Zm5.95,48.69c0,.13,0,.32.06.48Zm11,61.75c-3-1.45-4.81-20.7-7-35.14-1.43-9.38-3-5.55,6.31-11.51.82,7.48,1.33,5.79-2.21,8a.52.52,0,0,0,.52.9c2.91-1.82,2.49-3.25,3.06,6.49C363,514.6,362.72,511.25,360.25,510.38Zm-3.33-71.5c-6.33,5.3-6.9,5.46-6.14,6.23s.85.19,6.3-4.43c.62,6.35,1.51,5.34-3,6.9a.74.74,0,0,0,.39,1.42c4.27-1.46,3.15-2.77,4,4.81-2,.95-4.4,1.63-3.21,2.35.39.21,3.23-1.2,3.33-1.26,1.07,9.54,1.42,7.92-.89,9.36-.22.14-5.54,3.32-5.59,3.37-6.81-44.47-7.15-42.92-3.81-67.79C353.45,365.15,350,365.82,356.92,438.88ZM347.7,289c-19,.52-15.69.42-6.15-4.08.45-.19,9.59-4,9.63-3.53C352,292.82,350.18,287.38,347.7,289Zm-24.93-15.41c6.52-3.78-1.86-.61,53.3-1.18a.89.89,0,0,0,0,.37c-1.6.16-1.4.09-1.4.26,1.71-.16,1.36-.45,1.66,1.06C376.26,274.07,322,274,322.77,273.56Zm67.78.11c-4.05.32-3.14.55-4.06-1.38,3.69,0,7-.22,7.62-.24C397.07,273.83,396.38,273.19,390.55,273.67Zm10.31-2.12a13,13,0,0,0-2.9-2.1c-4.28-2.56-1.34,2.46-1.23-13.85.63-4.38,3.09-11.83,4.42-16C400.94,271,400.73,269.58,400.86,271.55Z"/><path d="M343.26,434.92c.05.33.06.39,0,0Z"/><path d="M325.8,131.33c3.18,128.45,1.06,130.72,4.7,129.29,1.44.53,54.06.13,55.3-1.75,6.66-.38,1-194.87,4.16-225.07,1.87-17.68,4.53-15.65-11.74-13.86-11.65,1.28-32.55-1.15-46.56-.76-3.86.11-4.49-5.81-5.16,45C326.49,64.27,325.23,109.14,325.8,131.33Zm7.39,127.33c-.24,0-.14-25.21-.13-25.11,1,9.87,1.13-4.44,1.1,20C334.16,259.56,334.48,258.7,333.19,258.66Zm47.06-18.47c.07-.16-.08.18,0,.1a23.59,23.59,0,0,1-30.76,12.53c-22.19-9.5-17.82-41.8,5.92-45.16A23.61,23.61,0,0,1,380.25,240.19Zm-5.54,16.43c-3.31.14-2.63.75-2.63-3,0-1.57-.4-.36,2.64-2.87C374.72,252.74,374.72,254.68,374.71,256.62Zm-15.3,0c3.2-.11,2.73-.63,2.73.65C358.9,257.32,359.41,257.53,359.41,256.58Zm-5.17-.34c0,1.69.48,1.27-2.35,1.46C351.89,255.08,351.36,255.76,354.24,256.24Zm-10.95-4.09c0,7.38.61,6.33-1.93,6.45V250C343.58,252,343.29,251.22,343.29,252.15Zm-9.7-62.35c4-9,17.22-3.18,13.58,5.73,1-2.68-.84,5.35-7.83,4.43A7.36,7.36,0,0,1,333.59,189.8Zm49.63-74.68c0,91,1.22,75-2.38,71.63,0-46.62-.14-125.34-.26-162.77C384.43,24,383.28,13.91,383.22,115.12Zm-.65,78.59c-1.34,8.48-13.29,8.27-14.59,0C366.56,182.63,384,182.59,382.57,193.71Zm-6.12,19.13c0-14.32-.48-11.83,1.41-12.46s1.38-3.52,1.37,15.68A26.65,26.65,0,0,0,376.45,212.84ZM347.73,95.69c-.21-81.11-1.06-72.28,1.9-72.21,1.22,0,.63-14.28.48,183.41C346.9,208,348.11,220.52,347.73,95.69ZM338.65,215c0-16.93-.67-14.25,1.49-14.18C340.12,215.48,340.61,212.54,338.65,215Zm-3,4.67c0-22.66-.07-20.41.08-20.31,2.22,1.6,1.64-2.4,1.61,17.42A26,26,0,0,0,335.63,219.63Zm5.7-7.52c0-13.61-.57-11,1.64-11.73.53-.18.38-1.69.36,10.1A24.09,24.09,0,0,0,341.33,212.11Zm3.63-2.74c0-12.4-.49-9,1.55-11.4C346.5,210.22,346.94,208.13,345,209.37Zm-3.67-24.77C341.05,5.07,340.17,23.26,343,23.32c.92,0,.65-4.17.57,37.66C343.3,199.74,344.26,184.93,341.29,184.6Zm-2.69.14c-.37-213.68,1.89-218,1.56-.21A7.42,7.42,0,0,0,338.6,184.74Zm6-161.38c3.27.07,2.23-10.38,2,90C346.35,258.76,344.89,169.26,344.65,23.36Zm31.78,161.25C376.3,5.84,374.7,24,379.52,24,378.93,206.43,381,185.27,376.43,184.61Zm-4.39.61C372,6.19,370.44,23.93,375,24,374.76,202.2,376.27,183.38,372,185.22ZM368.59,188c0-53.33-.08-111-.26-164.16,2.82,0,2.07-10,2,90.29C370.23,196.22,371,184.63,368.59,188Zm-3.52,3.25c1.44,11.21-16,10.83-14.59,0C351.8,182.81,363.77,183,365.07,191.28Zm-9.21-25.4c-.47-330.38,3.21,18.28,1.69,18.31C355.16,184.24,355.89,187.79,355.86,165.88Zm6.37,19.65c-4.07-2.72-2.87,19.32-3-161.74C364.22,23.87,362.48,4.25,362.23,185.53Zm-7.82-77c-.16,85.42.55,75.64-1.63,77.35-1.34,1-1,19.83-1.17-162.37C355.89,23.69,354.58,14.22,354.41,108.56Zm-2.56,97.79c0-10.65-.5-8.62,1.25-7.37,1.57,1.13,1.18-.75,1.17,6.85C353.45,206,352.65,206.13,351.85,206.35Zm4-.74c0-6.81-.46-5.2,1.73-5.16C357.63,206.51,358.17,205.38,355.9,205.61Zm3.48-.12c0-6.33-.33-5,1-5.45,2.47-.82,1.85-2.84,1.84,5.71A26.62,26.62,0,0,0,359.38,205.49Zm4.32.52c0-9.65-.24-7.7.67-8.93a8.12,8.12,0,0,0-.12-9.67c-.72-.95-.57.11-.57-3.38-.23-179.15-1.87-160.23,3.46-160.18C366.35,227.79,368.59,207,363.7,206Zm4.9,1.54c0-12-.12-10.37.26-9.89,1.86,2.39,1.39-1.16,1.39,10.66C369.71,208,369.16,207.79,368.6,207.55Zm3.46,1.81c0-11.91-.71-8.83,2.7-8.6C374.75,213.88,375.65,211.62,372.06,209.36ZM336.41,23.18c1.73,0,1.2-9.38,1.07,93.69C337.23,315.28,333.34,23.15,336.41,23.18ZM333,196.1a6.86,6.86,0,0,0,1.2,1.86C334.19,232.8,333.05,246.27,333,196.1Zm47.84,22.54c0-29.86-.45-15.62,2.15-23.48.35-1.06.18-3.91.17,23.81C383.19,228.13,383.88,224.07,380.87,218.64Zm-47.7-195.5c3.13.06-.19,334.3-.22,53.55C332.93,19,332.85,23.14,333.17,23.14Zm2.5,235.55c0-.59,0-16.1,0-16.2,2.18,4.35,1.64-.13,1.62,14.11C337.28,259.07,337.69,258.7,335.67,258.69Zm3,0c0-1.07,0,3.82,0-11.49,1.76,2.15,1.42.11,1.41,7.68C340.09,259.45,340.5,258.65,338.7,258.67Zm6.3-.4v-5.53c1.7,1.07,1.44.59,1.44,1.49C346.44,258.89,346.86,258.05,345,258.27Zm3-.29c0-4.52-.54-3.71,2.06-2.81C350.06,258.39,350.6,257.78,348,258Zm7.91-.52c0-1.31-.33-.95,1.68-.87C357.59,257.59,358,257.35,355.92,257.46Zm7.85-.28c0-1.48-.34-1,1.66-1.52,1.76-.49,1.4-.9,1.4,1.38C366.23,257.08,365.62,257.12,363.77,257.18Zm4.87-.26c0-3-.41-2.12,1.58-3.15C370.22,257.46,370.63,256.79,368.64,256.92Zm7.85-.39c0-9.79-.72-5.77,2.71-10.48C379.19,258.35,380,256.34,376.49,256.53Zm4.42-.21c0-20-.27-9.13,2.28-18.62C383.18,258.46,384,256.24,380.91,256.32Zm6.87-228.95C384.78,50.59,385.23,520,385,24,389,23.92,388.4,22.59,387.78,27.37ZM331.54,23.1c.1,0,3,333.76-1.09,206.52C326.05,89.61,331.23,23.08,331.54,23.1Z"/><path d="M362.1,280.46l1.09-.15C361.9,280.48,362.1,280.36,362.1,280.46Z"/><path d="M366.82,273.65c0,.13-.22.12,1.84-.08C368.66,273.44,368.87,273.46,366.82,273.65Z"/><path d="M370.22,273.42c2.53-.24,2.56-.35,0-.1Z"/><path d="M47.52,200.12c-.06-.15-.09-.21,0-.05Z"/><path d="M37.28,144.3c0-.11-1.53-3.69,1.12,15.79-.2-2,4,28.66,7.45,41.14,6.54,23.63,6,24.34,23.34,26.6,7.78,1.12,14.6,3.26,18.58,3.54,5,.36,4.31-1.09,1.18-1s-19.7-3.82-22.91-4.92C46.34,218.68,37.81,161,37.28,144.3Z"/><path d="M260.11,52.38a15,15,0,0,1,4.78.78c4.29,1.9,5.76,1.75,8.74,2.83,13.46,4.82,5.8,2.16,11.7,42.73,1.78,15.82,1.11,72.23,2,14.64.07-6.13-.51-8.23-.53-12.31,0-3.89,1.12-38.38-5.64-43.16-2.33-1.67-14.89-5.33-17.57-5.78C259,51.34,259.68,52.35,260.11,52.38Z"/><path d="M244.73,232.83c11.45-2.92,41.28-2.54,40.65-24.79-.18-7.82,1.4-17.36.34-17.36-.21,0-1.62,15.3-1.5,13.62-1.89,13-3.34,13.72-11.14,17.81-13.47,7-20.78,6.72-26.25,8S244,233,244.73,232.83Z"/><path d="M349.29,252.75h0Z"/><path d="M380.22,240.26c0-.12,0-.07,0,0Z"/><path d="M367.72,252.75l-.06,0Z"/><path d="M380.22,221.82v0C380.24,221.87,380.25,221.89,380.22,221.82Z"/><path d="M370.27,246.17c.08-.07,0,0,0,0Z"/><path d="M366,248.64c.1,0,.06,0,0,0Z"/><path d="M351.1,248.64h0C351.06,248.62,351.05,248.61,351.1,248.64Z"/><path d="M378.11,225.74c-5.21-20-34-20.06-39.16.26-4.62,18.43,16.69,32.75,32.09,20.82A20.21,20.21,0,0,0,378.11,225.74Zm-12.48-3.34c1.47,1.1,3.55-.51-18,11.14C345.57,223.32,357.49,216.07,365.63,222.4Zm5.48.73c-1.35,2.35-18.13,10.62-22.8,14.19-3,2.32-2.08,3.38-2.73,2.11C344.22,236.8,340.51,239.64,371.11,223.13Zm-3.38,15.19c-5.41,6.88-14.14,3.78-13.83,3.19,3.16-5.94,9.44-8.58,16.07-9.77C370.23,231.69,370,235.28,367.73,238.32Zm-11.57-5c16.28-8.88,29.75-14.37-9.75,6.94C347.61,238.25,347.84,237.8,356.16,233.3Zm17-9.77c.25.58.39.38-.83.42C373,222.76,372.85,222.8,373.16,223.53Zm4.45,10a19.22,19.22,0,0,1-32.5,11.07,24.14,24.14,0,0,0,4.86-3.15,13.34,13.34,0,0,0,22.1-9.91c0-2,4.71-2.56,4.76-4.46,0-.44-2.18-6.21-2.83-6.68-.93-.82-1-.59-5.55,1.87a13.34,13.34,0,0,0-23.06,8.7c-.18,4.59,1.8,2.77-2.25,5-1.18.63-.34,2-.92,2.11a1.23,1.23,0,0,0-1,1.15c-6.26-12.92,2.86-25.69,14.79-27.35A19.23,19.23,0,0,1,377.61,233.55Z"/><path d="M346.86,215.67c-.08.07,0,0,0,0Z"/><path d="M370.27,215.67l0,0C370.31,215.71,370.35,215.73,370.27,215.67Z"/><path d="M346.86,246.17c.06,0,0,0,0,0Z"/><path d="M351.1,213.2c-.05,0,0,0,0,0Z"/><path d="M366,213.2h0C366.09,213.23,366.13,213.24,366,213.2Z"/><path d="M351.82,222.4h0Z"/><path d="M365.63,222.4Z"/><path d="M363.07,220.92h0Z"/><path d="M368.44,231.93h0C368.5,231.92,368.51,231.92,368.44,231.93Z"/><path d="M348.54,237.77l0,0Z"/><path d="M342.39,227.5a1,1,0,0,0-.09,2A1,1,0,0,0,342.39,227.5Z"/><path d="M348,217.85a1,1,0,0,0-.08,2A1,1,0,0,0,348,217.85Z"/><path d="M360,214.09a1,1,0,0,0-.09,2A1,1,0,0,0,360,214.09Z"/><path d="M374.52,234.18a1,1,0,0,0-.09,2A1,1,0,0,0,374.52,234.18Z"/><path d="M365.52,244.58a1,1,0,0,0-.09,2A1,1,0,0,0,365.52,244.58Z"/><path d="M354.21,245.85a1,1,0,0,0-.09,2A1,1,0,0,0,354.21,245.85Z"/><path d="M334.61,195l0,0Z"/><path d="M345.68,195h0Z"/><path d="M335.37,189.06Z"/><path d="M334.66,196.68a6.77,6.77,0,1,0,3.5-10.46A6.76,6.76,0,0,0,334.66,196.68Zm3.9-6.82c4.68-3.44,7.23,5.91,1.47,5.36A3,3,0,0,1,338.56,189.86Zm6.17,3.82a.57.57,0,0,0-.78-.2,3.77,3.77,0,0,0-6.55-3.54,7.62,7.62,0,0,0-1.33,4.36,4.58,4.58,0,1,1,8.66-.62Zm-10.53-1.83a6,6,0,0,1,3.09-4.42,8.27,8.27,0,0,0-2.32,4.65c-.81,9.41,14.45,6.17,10-2.07.36-.18.22-.61.65.35a6,6,0,0,1,0,4.61C342.86,201.53,333.33,198.75,334.2,191.85Z"/><polygon points="343.92 189.71 343.92 189.71 343.92 189.72 343.92 189.71"/><path d="M343.1,188.9h0Z"/><path d="M336.67,189.71h0Z"/><path d="M347.19,195.47v0Z"/><path d="M335.89,198.51h0Z"/><path d="M333.58,195.51v0Z"/><path d="M338.44,193.62c2.72,1.52,5-.44,4.39-2.08-.28-.81-1.25-1.52-1.89.75-.47.84-.94,1.27-2.09.62A.41.41,0,0,0,338.44,193.62Z"/><path d="M352,194.7l0,0Z"/><path d="M352.76,188.72Z"/><path d="M362.63,187.91c-6.58-7.71-17.5,4.44-8.75,10.16C360.2,202.22,367.82,194,362.63,187.91Zm-7.61,2.8a3,3,0,1,1,3.14,4.17A3,3,0,0,1,355,190.71Zm7.1,2.63a.58.58,0,0,0-.78-.2c2.21-6.16-8.77-7.32-7.65.93.22,1.61-1.55-2.34.37-4.69C357,185.49,363.41,188.43,362.12,193.34Zm-2.24,4.55c-6.72,2.74-11.38-6-6-10.3,1.88-1.4-.74.41-1.46,3.66a5.34,5.34,0,0,0,9.62,4c2.25-3.05,0-5.08.68-5.9A6,6,0,0,1,359.88,197.89Z"/><path d="M363.07,194.67h0Z"/><polygon points="361.31 189.37 361.31 189.37 361.31 189.38 361.31 189.37"/><path d="M354.06,189.38h0Z"/><path d="M360.49,188.56h0Z"/><path d="M353.28,198.17h0Z"/><path d="M351,195.17v0S351,195.15,351,195.17Z"/><path d="M364.59,195.13l0,0Z"/><path d="M355.83,193.28c2.72,1.52,5-.44,4.39-2.08-.28-.81-1.25-1.52-1.89.75-.46.84-.93,1.28-2.09.63A.41.41,0,0,0,355.83,193.28Z"/><path d="M380.57,195h0Z"/><path d="M369.5,195v0Z"/><path d="M380.13,188.25c-6.58-7.72-17.49,4.44-8.74,10.16C377.7,202.55,385.33,194.32,380.13,188.25Zm-7.6,2.8a3,3,0,1,1,3.13,4.17A3,3,0,0,1,372.53,191.05Zm7.09,2.63a.56.56,0,0,0-.78-.2,3.77,3.77,0,0,0-6.54-3.54c-2.83,3.64.72,7.22-.73,5.39a4.58,4.58,0,1,1,8.05-1.65Zm-10.11,1.38a6,6,0,0,1,1.88-7.13c1.88-1.4-.74.41-1.46,3.66a5.34,5.34,0,0,0,9.63,4c2.23-3,0-5.08.67-5.91C384.51,197.12,372.31,202.67,369.51,195.06Z"/><path d="M370.27,189.06h0S370.27,189.06,370.27,189.06Z"/><path d="M371.57,189.71h0Z"/><polygon points="378.81 189.71 378.81 189.71 378.82 189.72 378.81 189.71"/><path d="M371.57,195.33Z"/><path d="M378,188.9Z"/><path d="M370.79,198.51h0Z"/><path d="M382.09,195.47l0,0Z"/><path d="M368.48,195.51l0,0Z"/><path d="M373.33,193.62c2.73,1.52,5-.44,4.39-2.08-.28-.81-1.25-1.52-1.89.75-.46.84-.93,1.28-2.09.62A.41.41,0,0,0,373.33,193.62Z"/><path d="M322.46,262.36c-.31,1.58-2.32,1.18,40.3,1.25,26.4.05,29.12.68,28-1.41.77-.39,4.77-245.19,3.41-245.56-.36-.36-71.34-.92-71.68.32C321.81,17.48,321.77,261.8,322.46,262.36ZM393,21.07c0,.1-3.79,240.13-3.61,240.59l-65.31-.12c0-.46,0,11.15,0-243.32C401.57,18.36,392.92,17.18,393,21.07Z"/><path d="M315.33,22.59h0C315.39,22.68,315.36,22.65,315.33,22.59Z"/><path d="M19.88,42.83c-2.07,61.47-6.72,53.68,1.06,213.26.23,4.83,3.62,3.84,13,2.34C83.13,258,183.5,255.53,217.5,257c96,3.87,99.19,8.83,97.24-5-4.14-32.35,5-226.33,0-230-.67-.5-113.08-4.93-201.55-1.13C106,21.11,101,22.24,76,23.42,11.3,26.75,20.54,21,19.88,42.83ZM227.12,20.05c2.45.07,90.14,2.86,87.26,2.86,3.89,5-1.33,38.59-1,221.81.09,26.59,22.17,8.77-212.9,11.93-85.38,1.09-74.95,1.06-77.58,1.3-2.49-4.3-7.76-121.65-3.69-182.89,3.45-51.18-.12-45.95,5.77-48C35.14,23.78,189.76,18.93,227.12,20.05Z"/></g></g></svg>